HIERARCHY
ROOT hip
{
	OFFSET 0.000000 0.000000 0.000000 
	CHANNELS 6 Xposition Yposition Zposition Xrotation Zrotation Yrotation
	JOINT abdomen
	{
		OFFSET 0.000000 3.402643 0.000000 
		CHANNELS 3 Xrotation Zrotation Yrotation
		JOINT chest
		{
			OFFSET 0.000000 8.438565 -0.680529 
			CHANNELS 3 Xrotation Zrotation Yrotation
			JOINT neck
			{
				OFFSET 0.000000 10.207942 -0.272212 
				CHANNELS 3 Xrotation Zrotation Yrotation
				JOINT head
				{
					OFFSET 0.000000 3.130431 0.000000 
					CHANNELS 3 Xrotation Zrotation Yrotation
					End Site
					{
						OFFSET 0.000000 3.130435 0.000000 
					}
				}
			}
			JOINT lCollar
			{
				OFFSET 3.470700 6.669187 -0.816635 
				CHANNELS 3 Yrotation Zrotation Xrotation
				JOINT lShldr
				{
					OFFSET 3.198488 0.000000 0.000000 
					CHANNELS 3 Zrotation Yrotation Xrotation
					JOINT lForeArm
					{
						OFFSET 10.139888 0.000000 0.000000 
						CHANNELS 3 Yrotation Zrotation Xrotation
						JOINT lHand
						{
							OFFSET 8.370511 0.000000 0.000000 
							CHANNELS 3 Zrotation Yrotation Xrotation
							End Site
							{
								OFFSET 4.083176 0.000000 0.000000 
							}
						}
					}
				}
			}
			JOINT rCollar
			{
				OFFSET -3.470700 6.669187 -0.816635 
				CHANNELS 3 Yrotation Zrotation Xrotation
				JOINT rShldr
				{
					OFFSET -3.198488 0.000000 0.000000 
					CHANNELS 3 Zrotation Yrotation Xrotation
					JOINT rForeArm
					{
						OFFSET -10.139888 0.000000 0.000000 
						CHANNELS 3 Yrotation Zrotation Xrotation
						JOINT rHand
						{
							OFFSET -8.370511 0.000000 0.000000 
							CHANNELS 3 Zrotation Yrotation Xrotation
							End Site
							{
								OFFSET -4.083176 0.000000 0.000000 
							}
						}
					}
				}
			}
		}
	}
	JOINT lThigh
	{
		OFFSET 5.308129 -1.633274 1.361059 
		CHANNELS 3 Xrotation Zrotation Yrotation
		JOINT lShin
		{
			OFFSET -2.041588 -20.007561 0.000000 
			CHANNELS 3 Xrotation Zrotation Yrotation
			JOINT lFoot
			{
				OFFSET 0.000000 -19.190928 -1.224953 
				CHANNELS 3 Xrotation Yrotation Zrotation
				End Site
				{
					OFFSET 0.000000 -2.449906 4.627600 
				}
			}
		}
	}
	JOINT rThigh
	{
		OFFSET -5.308129 -1.633274 1.361059 
		CHANNELS 3 Xrotation Zrotation Yrotation
		JOINT rShin
		{
			OFFSET 2.041588 -20.007561 0.000000 
			CHANNELS 3 Xrotation Zrotation Yrotation
			JOINT rFoot
			{
				OFFSET 0.000000 -19.190928 -1.224953 
				CHANNELS 3 Xrotation Yrotation Zrotation
				End Site
				{
					OFFSET 0.000000 -2.449906 4.627600 
				}
			}
		}
	}
}
MOTION
Frames: 11
Frame Time: 0.011111
25.347286 48.277214 -126.019859 7.591813 -5.032774 -6.226694 18.335754 4.484209 10.471188 -24.419838 -0.436630 2.449033 -9.278326 -0.644017 -0.874929 12.093943 -1.496133 -1.743182 -7.198545 -2.255300 -0.324897 -77.159523 -7.916716 -2.612656 -34.833042 2.713089 2.668730 8.524705 12.647240 -56.565811 5.113256 1.510366 0.237230 66.904594 37.206676 22.272194 65.081627 -9.464442 14.739616 -8.533279 -12.636986 62.308743 -37.073307 15.934694 0.370830 27.911705 -5.444335 -4.578274 -22.063326 2.899226 -1.439182 4.227034 1.679023 -4.971043 22.910913 5.677969 3.905541 -15.040246 26.125187 11.710687 
25.439705 48.285133 -125.198311 7.689160 -4.743156 -6.690458 18.117828 4.048483 10.533222 -24.351217 -0.308844 2.509400 -9.099823 -0.514318 -0.824700 11.655910 -1.640989 -1.625329 -7.198545 -2.255300 -0.324897 -77.539757 -6.746646 -4.816043 -34.664291 2.642167 2.610280 8.524705 12.647240 -57.571663 5.113256 1.510366 0.237230 66.251640 38.125565 23.249159 65.900612 -9.448870 15.126698 -8.533279 -12.636986 62.992336 -36.826160 15.937563 -1.259102 23.993900 -5.634708 -4.062084 -23.150511 3.534073 -1.045824 5.409309 1.112783 -4.965189 21.967676 5.710075 3.767560 -15.951255 26.805304 12.371083 
25.536747 48.243546 -124.371162 7.920314 -4.431123 -7.261879 17.674564 3.601456 10.682496 -24.341040 -0.137884 2.597249 -10.578883 -2.023749 -0.160951 14.529419 1.119306 -0.382954 -7.198545 -2.255300 -0.324897 -78.076149 -4.947552 -3.394830 -35.589710 3.033875 2.909325 8.524705 12.647240 -54.817764 5.113256 1.510366 0.237230 65.641960 38.940823 24.054050 66.559334 -9.425961 15.429855 -8.533279 -12.636986 63.314602 -36.788124 16.051010 -2.532889 20.522062 -5.747629 -3.614502 -24.507517 3.944989 -0.656511 6.140743 0.487632 -5.149245 21.550924 5.720488 3.731513 -15.002594 27.372808 12.181435 
25.635767 48.208557 -123.609039 8.290906 -4.257732 -7.675984 17.223372 3.270908 10.974013 -24.350574 -0.228133 2.719921 -12.186146 -3.131717 0.342723 17.439762 3.441132 0.624258 -7.198545 -2.255300 -0.324897 -78.153809 -1.911846 4.709311 -38.855846 4.322729 3.990252 8.524705 12.647240 -45.794323 5.113256 1.510366 0.237230 65.184044 40.027527 24.312248 66.983192 -9.405613 15.632864 -8.533279 -12.636986 63.607571 -36.630783 16.304768 -3.511468 16.487696 -5.864744 -3.063557 -24.929533 5.033806 -0.120664 6.610206 0.038801 -5.445953 21.183495 5.738361 3.663105 -10.809441 27.723787 10.414298 
25.725216 48.212849 -122.847229 8.602729 -4.020304 -8.005470 16.807701 2.837176 11.011863 -24.116261 -0.187336 2.774843 -12.037888 -2.765625 0.181354 16.693865 2.752774 0.272241 -7.198545 -2.255300 -0.324897 -78.371979 -3.953295 -11.552873 -34.525387 2.585487 2.565494 8.524705 12.647240 -60.569714 5.113256 1.510366 0.237230 64.693649 41.377319 24.525373 67.323784 -9.390355 15.794766 -8.533279 -12.636986 63.724758 -36.182819 16.529989 -4.396616 12.455601 -5.954678 -2.475510 -25.104109 6.185286 0.372781 7.067003 -0.488034 -5.392885 20.976110 5.717960 3.640347 -9.236625 27.564507 9.665752 
25.817635 48.150463 -122.057388 8.807124 -3.964896 -8.440670 16.419205 2.699465 10.958753 -23.608799 0.042176 2.771400 -12.139401 -2.613907 0.287749 16.234482 2.411565 0.456903 -7.198545 -2.255300 -0.324897 -79.036873 -1.718714 -3.570760 -37.308464 3.730018 3.477278 8.524705 12.647240 -51.145889 5.113256 1.510366 0.237230 64.199219 42.648403 24.878210 67.756996 -9.361349 16.000151 -8.533279 -12.636986 63.441555 -35.337654 16.912210 -3.933227 8.744556 -5.990206 -1.967640 -24.574408 5.845220 0.129131 7.854787 -0.839212 -4.856563 20.556118 5.737429 3.586313 -7.538095 27.416092 8.856998 
25.912365 48.037910 -121.275780 8.934211 -4.131261 -8.962903 16.289076 2.786971 11.225811 -23.315952 0.118955 2.846133 -12.071193 -2.768861 0.355046 15.642375 2.653771 0.590999 -7.198545 -2.255300 -0.324897 -79.706726 -0.796274 -5.021045 -37.980434 3.985258 3.692252 8.524705 12.647240 -51.165417 5.113256 1.510366 0.237230 63.703236 43.633995 25.148670 68.182838 -9.337312 16.211271 -8.533279 -12.636986 63.373192 -34.615646 17.517820 -3.502700 5.512885 -5.998525 -1.510688 -23.250343 6.546128 0.111891 8.901863 -0.918201 -4.348676 19.876253 5.777952 3.483449 -9.362476 28.012859 9.851505 
26.008745 48.030323 -120.494835 8.954876 -4.370872 -9.486922 16.377686 2.885437 11.690532 -23.247572 -0.016887 2.958906 -12.049060 -2.718708 0.402066 15.363146 2.896344 0.728273 -7.198545 -2.255300 -0.324897 -80.059235 -0.174878 -7.548064 -37.819706 3.921332 3.635837 8.524705 12.647240 -52.307991 5.113256 1.510366 0.237230 63.245422 44.396965 25.297815 68.615829 -9.301867 16.417377 -8.533279 -12.636986 63.568508 -33.454578 18.201927 -3.012464 2.353281 -5.984240 -1.049894 -20.816282 8.384970 0.207834 10.098971 -1.005071 -3.754496 19.108139 5.795600 3.377652 -5.974245 27.428692 8.164226 
26.117998 48.025700 -119.699371 8.872674 -4.659353 -9.869665 16.595816 2.991339 12.197838 -23.276833 -0.283995 3.086735 -12.153814 -1.930183 0.401780 15.466562 2.355637 0.844999 -7.198545 -2.255300 -0.324897 -80.035904 0.577719 -8.208426 -37.799538 3.915689 3.637697 8.524705 12.647240 -51.888073 5.113256 1.510366 0.237230 62.899296 44.865559 25.312405 69.176178 -9.253813 16.694788 -8.533279 -12.636986 63.773586 -33.089027 18.785576 -2.817825 1.426509 -5.973528 -0.947948 -20.169989 7.972951 -0.058562 11.482865 -1.054849 -2.945732 18.248241 5.837381 3.247795 -3.950512 26.535023 7.080614 
26.230221 47.942852 -118.896973 8.869976 -4.885439 -10.132080 16.732233 3.064460 12.565454 -23.393885 -0.488710 3.183989 -12.337255 -2.353530 0.387437 15.324880 2.984049 0.756962 -7.198545 -2.255300 -0.324897 -79.979675 1.236287 -8.849619 -37.769455 3.902466 3.622898 8.524705 12.647240 -51.565807 5.113256 1.510366 0.237230 62.642548 45.116283 25.310829 69.763924 -9.188096 16.968086 -8.533279 -12.636986 63.881012 -34.758770 18.912708 -3.241521 4.071237 -5.991522 -1.292485 -21.163313 6.067448 -0.482657 12.767687 -1.083650 -2.139265 17.342102 5.845359 3.127960 -3.554894 25.658285 6.734591 
26.333532 47.861988 -118.087318 8.934140 -4.997621 -10.354138 16.713768 3.029701 12.785858 -23.403662 -0.622336 3.248279 -12.341896 -2.587513 0.368629 14.948591 3.479935 0.728974 -7.198545 -2.255300 -0.324897 -79.996178 1.638240 -10.724792 -37.398708 3.761302 3.495681 8.524705 12.647240 -52.542370 5.113256 1.510366 0.237230 62.474854 45.296959 25.225843 70.331894 -9.123878 17.258177 -8.533279 -12.636986 63.773586 -35.915421 18.983042 -3.512942 6.026505 -6.004265 -1.567382 -21.377016 5.306831 -0.689040 13.670226 -1.240564 -1.439022 16.805891 5.877647 3.044748 -2.414121 24.702950 6.086298 
